<svg xmlns="http://www.w3.org/2000/svg" width="135" height="24" viewBox="0 0 135 24" class="default_cursor_land"><defs><clipPath id="a"><path data-name="사각형 341362" d="M0 0h135v20.533H0z"/></clipPath></defs><path data-name="사각형 341359" style="fill:none" d="M0 0h135v24H0z"/><path data-name="패스 843903" d="m8.177 8.557-2.61 8.7-2.6-8.7H0L4.266 21.6h2.61L11.16 8.557z"/><path data-name="사각형 341360" d="M12.406 8.557h2.61V21.6h-2.61z"/><g data-name="그룹 2158"><g data-name="그룹 2157" style="clip-path:url(#a)" transform="translate(0 1.734)"><path data-name="패스 843904" d="M16.672 10.735a3.758 3.758 0 0 1 .309-1.519 3.974 3.974 0 0 1 2.083-2.082 3.758 3.758 0 0 1 1.519-.31h5.981v2.611h-5.981a1.289 1.289 0 0 0-1.3 1.3 1.328 1.328 0 0 0 .1.514 1.275 1.275 0 0 0 .278.418 1.29 1.29 0 0 0 .923.377h2.61a3.845 3.845 0 0 1 1.524.3 3.892 3.892 0 0 1 2.083 2.083 3.949 3.949 0 0 1 0 3.043 3.936 3.936 0 0 1-.837 1.242 3.977 3.977 0 0 1-1.246.841 3.792 3.792 0 0 1-1.524.31H17.4v-2.607h5.794a1.3 1.3 0 1 0 0-2.6h-2.61a3.758 3.758 0 0 1-1.519-.31 3.962 3.962 0 0 1-2.083-2.087 3.789 3.789 0 0 1-.309-1.524" class="default_cursor_land"/><path data-name="사각형 341361" d="M28.814 6.824h2.61v13.043h-2.61z"/><path data-name="패스 843905" d="M39.318 19.867h-2.6V9.435h-3.92v-2.61h10.431v2.61h-3.911z"/><path data-name="패스 843906" d="M49.309 20.103h-3.974V.249h3.974v9.928L56.703.249h4.514l-6.272 8.377 6.272 11.478h-4.514l-4.361-8.03-3.032 4.057z" class="default_cursor_land"/><path data-name="패스 843907" d="M81.86 10.26a10.042 10.042 0 0 1-.367 2.721 10.472 10.472 0 0 1-1.032 2.45 10.158 10.158 0 0 1-1.606 2.084 10.466 10.466 0 0 1-2.077 1.613 10.25 10.25 0 0 1-7.9 1.038 10.339 10.339 0 0 1-7.186-7.186 10.3 10.3 0 0 1 0-5.448 10.137 10.137 0 0 1 1.038-2.451A10.477 10.477 0 0 1 64.345 3a10.17 10.17 0 0 1 2.084-1.6A10.465 10.465 0 0 1 68.88.367a10.3 10.3 0 0 1 5.448 0 10.249 10.249 0 0 1 7.165 7.165 10.113 10.113 0 0 1 .367 2.727m-3.946 0a6.147 6.147 0 0 0-.5-2.457 6.294 6.294 0 0 0-3.358-3.358 6.323 6.323 0 0 0-4.922 0 6.472 6.472 0 0 0-2.008 1.35A6.324 6.324 0 0 0 65.771 7.8a6.147 6.147 0 0 0-.5 2.457 6.05 6.05 0 0 0 .5 2.444 6.4 6.4 0 0 0 3.365 3.358 6.328 6.328 0 0 0 4.922 0 6.326 6.326 0 0 0 2.007-1.357 6.51 6.51 0 0 0 1.35-2 6.05 6.05 0 0 0 .5-2.444" class="default_cursor_land"/><path data-name="패스 843908" d="M88.438 20.104h-3.974V.249h7.943a7.757 7.757 0 0 1 2.1.284 7.89 7.89 0 0 1 1.89.8 8.081 8.081 0 0 1 1.61 1.249 7.993 7.993 0 0 1 2.049 3.51 7.916 7.916 0 0 1 .027 4.1 8.158 8.158 0 0 1-.733 1.842 7.768 7.768 0 0 1-1.17 1.606 7.933 7.933 0 0 1-1.551 1.274l2.2 5.192h-4.223l-1.731-4-4.444.027zm0-15.881v7.946h3.969a3.834 3.834 0 0 0 1.536-.311 4.03 4.03 0 0 0 1.26-.852 3.989 3.989 0 0 0 .851-1.267 3.978 3.978 0 0 0 0-3.088 3.989 3.989 0 0 0-.851-1.267 4.03 4.03 0 0 0-1.26-.852 3.827 3.827 0 0 0-1.536-.311z" class="default_cursor_land"/><path data-name="패스 843909" d="M116.558 20.103h-13.61V.249h13.61v3.973h-9.636v3.974h6.521v3.973h-6.521v3.96h9.636z" class="default_cursor_land"/><path data-name="패스 843910" d="M135 20.104h-3.974V16.13h-7.947v3.974h-3.96V8.197a7.739 7.739 0 0 1 .623-3.095 8.086 8.086 0 0 1 1.7-2.527 7.933 7.933 0 0 1 2.52-1.7 8 8 0 0 1 6.189 0 7.966 7.966 0 0 1 4.229 4.23 7.733 7.733 0 0 1 .623 3.095zm-3.974-7.935V8.197a3.877 3.877 0 0 0-.311-1.544 3.97 3.97 0 0 0-2.119-2.119 3.982 3.982 0 0 0-3.088 0 3.968 3.968 0 0 0-2.118 2.119 3.876 3.876 0 0 0-.311 1.544v3.972z" class="default_cursor_land"/></g></g></svg>