 <svg  version="1.0" xmlns="http://www.w3.org/2000/svg"  width="300.000000pt" height="188.000000pt" viewBox="0 0 300.000000 188.000000"  preserveAspectRatio="xMidYMid meet">  <g transform="translate(0.000000,188.000000) scale(0.100000,-0.100000)" fill="#e17014" stroke="none"> <path d="M1467 1759 c-71 -10 -186 -64 -244 -113 -101 -87 -163 -228 -163 -370 0 -137 42 -239 140 -337 36 -36 89 -78 117 -93 196 -99 417 -64 568 88 98 99 145 212 145 346 -1 296 -266 522 -563 479z m227 -50 c77 -25 165 -90 216 -158 114 -152 120 -378 13 -531 -49 -69 -138 -141 -211 -170 -124 -48 -288 -35 -401 33 -256 154 -300 514 -86 722 125 123 296 161 469 104z"/> <path d="M1482 1713 c-16 -3 -30 -22 -51 -68 -28 -60 -31 -64 -60 -62 -29 2 -31 5 -31 40 0 20 -3 37 -6 37 -4 0 -22 -9 -40 -21 -32 -19 -33 -22 -19 -43 9 -13 13 -31 9 -40 -8 -20 -9 -20 -41 1 -25 17 -26 16 -54 -18 l-28 -34 47 -10 c39 -8 47 -14 50 -35 3 -23 -4 -28 -72 -53 l-74 -28 -7 -70 c-4 -39 -5 -72 -3 -75 3 -2 45 36 93 85 70 72 91 88 105 81 15 -8 12 -23 -34 -159 -31 -89 -60 -159 -75 -175 l-23 -25 52 -56 c221 -232 583 -177 720 111 36 75 37 80 6 88 -52 13 -246 237 -204 235 7 0 59 -8 116 -18 56 -9 102 -13 102 -9 0 25 -44 115 -75 157 -61 80 -57 80 -255 17 -160 -50 -175 -53 -187 -38 -7 9 -12 19 -12 22 0 3 42 39 93 80 71 57 89 77 77 82 -17 7 -83 8 -119 1z m13 -79 c-33 -30 -62 -49 -63 -44 -2 6 8 31 23 56 20 33 32 45 45 41 10 -2 24 -1 31 4 7 4 16 5 19 2 3 -3 -22 -29 -55 -59z m-181 -29 c-4 -8 -10 -12 -15 -9 -11 6 -2 24 11 24 5 0 7 -7 4 -15z m531 -42 c29 -31 70 -97 79 -129 6 -20 4 -20 -41 -12 -27 4 -68 11 -93 15 -25 3 -58 15 -73 26 -26 18 -33 18 -88 7 -45 -10 -63 -10 -72 -1 -6 6 -23 11 -38 11 -49 0 -41 18 14 30 28 7 63 17 77 23 47 19 165 55 187 56 12 0 34 -11 48 -26z m-462 -1 c26 3 33 0 34 -14 1 -10 8 -27 16 -39 14 -19 13 -24 -5 -54 -12 -21 -32 -38 -54 -45 -29 -10 -38 -9 -64 10 -17 12 -30 30 -30 42 0 12 -7 30 -17 40 -14 16 -14 18 0 18 8 0 26 13 39 29 16 20 27 26 35 19 7 -6 28 -8 46 -6z m-148 -32 c-3 -5 -10 -10 -16 -10 -5 0 -9 5 -9 10 0 6 7 10 16 10 8 0 12 -4 9 -10z m315 -80 c22 -6 19 -7 -19 -14 -30 -5 -44 -12 -48 -26 -5 -17 -7 -18 -28 -4 -19 13 -21 18 -12 38 12 25 33 26 107 6z m180 -57 c22 -44 57 -90 101 -135 38 -37 67 -68 64 -68 -3 0 -94 40 -105 47 -3 2 -3 -18 -1 -43 3 -41 1 -46 -14 -40 -56 21 -60 19 -99 -39 l-37 -57 -32 45 -32 45 -68 -50 -68 -49 7 72 c7 68 6 72 -12 65 -10 -4 -34 -10 -52 -13 -31 -5 -49 -19 -39 -29 2 -3 22 -1 45 4 l40 9 -5 -58 c-6 -61 -3 -65 36 -59 8 1 34 17 56 36 23 19 45 34 50 34 4 0 22 -17 41 -37 l34 -38 23 25 c12 14 32 39 43 55 19 26 25 28 46 18 19 -9 28 -7 47 8 13 11 21 25 18 34 -7 17 9 30 18 15 3 -5 23 -10 44 -10 51 0 64 -17 50 -61 -7 -19 -20 -43 -30 -55 -11 -11 -19 -24 -19 -29 0 -17 -101 -105 -142 -125 -175 -81 -375 -44 -506 92 l-33 35 21 26 c22 28 60 128 60 159 0 10 7 18 15 18 8 0 12 6 10 13 -6 16 21 92 28 80 3 -5 6 -28 5 -50 0 -23 3 -46 6 -52 4 -6 -1 -22 -10 -36 -31 -48 -8 -35 58 33 48 49 70 81 82 117 9 28 20 55 24 61 4 7 50 21 102 32 52 11 96 20 96 21 1 1 16 -29 34 -66z m-542 -50 c-32 -31 -60 -54 -63 -51 -3 3 1 13 10 22 9 9 12 16 6 16 -24 0 -9 29 22 43 86 39 90 35 25 -30z m241 17 c16 -29 19 -44 12 -57 -12 -23 -69 -78 -75 -72 -2 2 -6 39 -8 81 -5 72 -4 77 16 81 12 2 24 5 27 6 3 0 15 -17 28 -39z m26 20 c3 -5 1 -10 -4 -10 -6 0 -11 5 -11 10 0 6 2 10 4 10 3 0 8 -4 11 -10z"/> <path d="M1408 913 c7 -3 16 -2 19 1 4 3 -2 6 -13 5 -11 0 -14 -3 -6 -6z"/> <path d="M1021 1354 c0 -11 3 -14 6 -6 3 7 2 16 -1 19 -3 4 -6 -2 -5 -13z"/> <path d="M2030 485 c0 -143 0 -145 25 -161 32 -21 75 -12 75 16 0 11 -9 24 -21 30 -19 11 -20 20 -19 118 2 151 4 142 -30 142 l-30 0 0 -145z m49 -128 c12 -15 12 -17 -3 -11 -9 3 -16 13 -16 22 0 8 1 13 3 11 1 -2 9 -12 16 -22z"/> <path d="M170 460 l0 -150 35 0 35 0 0 65 c0 57 2 65 19 65 24 0 35 -15 51 -65 20 -62 42 -79 77 -57 16 10 -26 129 -52 148 -17 12 -17 15 -3 31 15 18 58 97 58 108 0 3 -15 5 -32 5 -30 0 -36 -6 -62 -55 -42 -77 -56 -79 -56 -5 l0 60 -35 0 -35 0 0 -150z m37 63 c-3 -10 -5 -2 -5 17 0 19 2 27 5 18 2 -10 2 -26 0 -35z m22 -42 c8 -14 7 -22 -3 -30 -8 -6 -12 -24 -10 -42 2 -17 0 -38 -5 -47 -6 -10 -9 11 -10 61 -1 76 8 96 28 58z m67 10 c-4 -5 5 -23 19 -39 26 -31 30 -42 17 -42 -5 0 -15 11 -22 25 -7 14 -19 25 -27 25 -16 0 -17 12 -1 28 14 14 21 16 14 3z m54 -116 c0 -8 -2 -15 -4 -15 -2 0 -6 7 -10 15 -3 8 -1 15 4 15 6 0 10 -7 10 -15z"/> <path d="M1350 478 c0 -73 4 -140 9 -147 12 -19 125 -27 164 -12 17 7 27 18 27 31 0 18 -6 20 -65 20 l-65 0 0 36 0 36 48 -3 c45 -3 47 -2 50 24 3 26 2 27 -47 27 -50 0 -51 1 -51 30 0 30 0 30 60 30 60 0 60 0 60 30 l0 30 -95 0 -95 0 0 -132z m60 93 c0 -6 -4 -13 -10 -16 -15 -9 -12 -48 4 -70 11 -15 12 -24 3 -40 -17 -30 -19 -65 -6 -81 13 -16 6 -30 -10 -19 -7 4 -11 50 -11 121 0 95 3 114 15 114 8 0 15 -4 15 -9z"/> <path d="M473 530 c-62 -25 -76 -139 -24 -191 41 -40 91 -40 132 0 24 25 29 37 29 81 0 62 -11 85 -50 105 -32 17 -54 18 -87 5z m62 -105 c0 -53 -2 -60 -20 -60 -15 0 -22 10 -29 37 -12 46 5 91 32 86 14 -3 17 -14 17 -63z m44 32 c0 -21 -1 -21 -9 -2 -12 28 -12 37 0 30 6 -3 10 -16 9 -28z"/> <path d="M860 528 c-14 -7 -33 -30 -43 -51 -37 -75 5 -167 77 -167 51 0 88 17 84 38 -3 13 -12 16 -42 14 -36 -3 -66 10 -66 29 0 5 27 9 60 9 l60 0 0 39 c0 72 -70 119 -130 89z m60 -42 c0 -2 3 -11 6 -20 5 -13 -1 -16 -25 -16 -33 0 -34 1 -25 24 5 14 44 24 44 12z m-61 -50 c9 -11 9 -16 1 -21 -7 -4 -10 -18 -7 -31 2 -13 0 -24 -4 -24 -5 0 -9 12 -10 28 0 15 -2 35 -4 45 -4 21 8 22 24 3z"/> <path d="M1105 535 c-5 -2 -27 -6 -47 -10 -33 -5 -36 -8 -29 -28 7 -19 15 -22 53 -19 34 3 47 0 51 -12 5 -13 -1 -16 -27 -16 -48 0 -86 -33 -86 -75 0 -56 59 -83 107 -50 18 13 22 13 33 0 15 -18 36 -19 42 -2 10 26 -7 177 -22 191 -16 15 -58 27 -75 21z m65 -113 c3 -40 2 -72 -2 -72 -5 0 -8 13 -8 29 0 17 -4 32 -10 36 -6 4 -5 15 2 30 8 19 8 28 -3 41 -12 15 -12 17 1 12 11 -3 16 -25 20 -76z m-40 -37 c0 -18 -5 -25 -20 -25 -25 0 -38 29 -19 41 25 15 39 10 39 -16z m-60 -35 c0 -5 -2 -10 -4 -10 -3 0 -8 5 -11 10 -3 6 -1 10 4 10 6 0 11 -4 11 -10z"/> <path d="M1593 529 l-23 -8 30 -45 c17 -24 30 -47 30 -51 0 -3 -14 -26 -31 -51 -33 -48 -31 -64 6 -64 17 0 29 9 41 32 l16 32 27 -32 c27 -33 45 -39 70 -23 12 8 8 19 -19 60 l-33 52 31 49 31 50 -32 0 c-24 0 -36 -7 -48 -27 -17 -26 -17 -26 -28 -5 -16 30 -42 41 -68 31z m92 -72 c4 5 5 -1 1 -11 -4 -13 2 -32 19 -58 28 -42 18 -53 -13 -13 -11 14 -25 25 -32 25 -7 0 -10 6 -7 14 3 7 -1 26 -9 41 -20 38 -18 42 9 17 13 -12 27 -19 32 -15z"/> <path d="M1800 380 c0 -168 1 -171 44 -154 11 4 16 19 16 50 0 43 1 43 29 38 62 -13 106 45 98 130 -7 76 -64 118 -113 82 -10 -8 -23 -11 -29 -7 -5 4 -18 11 -27 14 -17 6 -18 -6 -18 -153z m41 72 c-4 -54 -11 -53 -11 3 0 27 3 45 7 41 4 -4 6 -24 4 -44z m112 28 c3 -11 4 -20 3 -20 -1 0 -9 9 -19 20 -13 15 -14 20 -3 20 7 0 16 -9 19 -20z m-35 -51 c3 -50 -13 -74 -42 -63 -12 4 -16 19 -16 53 0 54 5 63 35 59 16 -2 21 -12 23 -49z m39 -1 c-3 -8 -6 -5 -6 6 -1 11 2 17 5 13 3 -3 4 -12 1 -19z m3 -31 c0 -7 -7 -22 -15 -33 -13 -17 -13 -16 -3 14 13 34 18 40 18 19z m-115 -74 c-13 -13 -15 -9 -15 29 l0 43 15 -28 c13 -25 13 -30 0 -44z"/> <path d="M2201 527 c-34 -20 -50 -55 -51 -110 0 -41 5 -53 29 -78 77 -76 195 11 162 121 -6 20 -19 44 -30 54 -25 23 -81 29 -110 13z m-10 -60 c-10 -9 -11 -8 -5 6 3 10 9 15 12 12 3 -3 0 -11 -7 -18z m79 4 c24 -46 1 -121 -34 -108 -11 5 -16 19 -16 51 0 24 3 51 6 60 8 22 31 20 44 -3z m49 -38 c-1 -10 -5 -29 -9 -43 -7 -21 -8 -19 -9 18 -1 23 4 42 9 42 6 0 10 -8 9 -17z"/> <path d="M2594 530 c-35 -14 -54 -50 -54 -102 0 -79 31 -118 94 -118 41 0 88 21 82 37 -3 8 -6 17 -6 19 0 3 -20 2 -44 -1 -38 -6 -46 -4 -55 14 -11 20 -10 21 49 21 l60 0 0 43 c0 32 -6 49 -23 65 -27 25 -73 35 -103 22z m64 -63 c3 -13 -3 -17 -28 -17 -28 0 -30 2 -20 21 13 24 43 22 48 -4z m-69 -51 c-14 -15 -11 -37 8 -58 20 -22 11 -24 -11 -2 -10 9 -16 33 -16 62 0 42 1 44 14 26 9 -12 11 -23 5 -28z"/> <path d="M646 514 c-3 -8 -1 -24 5 -35 6 -11 9 -52 8 -92 l-2 -72 31 -3 32 -3 0 68 c0 71 10 93 42 93 15 0 38 34 38 56 0 11 -59 2 -70 -11 -12 -14 -15 -14 -30 0 -21 19 -46 19 -54 -1z m53 -55 c-13 -25 -14 -24 -17 6 -1 18 2 23 13 19 11 -5 12 -11 4 -25z m-5 -45 c3 -8 2 -12 -4 -9 -6 3 -10 10 -10 16 0 14 7 11 14 -7z"/> <path d="M2377 517 c-3 -8 -1 -20 4 -28 5 -8 9 -51 9 -97 l0 -83 33 3 32 3 1 65 c0 76 6 90 40 90 13 0 24 3 24 8 0 4 3 17 6 30 6 19 3 22 -24 22 -16 0 -35 -7 -42 -15 -12 -14 -15 -14 -30 0 -21 19 -46 19 -53 2z m54 -79 l-4 -43 -9 34 c-10 35 -4 66 10 57 4 -2 6 -24 3 -48z m-4 -80 c-3 -7 -5 -2 -5 12 0 14 2 19 5 13 2 -7 2 -19 0 -25z"/> <path d="M2756 513 c-4 -9 -2 -21 4 -27 5 -5 10 -47 10 -93 l0 -83 30 0 30 0 0 68 c0 73 10 92 47 92 13 0 23 6 23 14 0 8 3 21 6 30 8 22 -49 22 -66 1 -12 -14 -15 -14 -30 0 -22 20 -46 19 -54 -2z m56 -38 c0 -5 -5 -11 -11 -13 -6 -2 -11 4 -11 13 0 9 5 15 11 13 6 -2 11 -8 11 -13z m-4 -51 c1 -14 -2 -23 -8 -19 -12 7 -14 45 -2 45 4 0 9 -11 10 -26z m-1 -66 c-3 -8 -6 -5 -6 6 -1 11 2 17 5 13 3 -3 4 -12 1 -19z"/> <path d="M722 105 c0 -27 3 -39 5 -27 l5 24 24 -23 c27 -25 33 -16 7 13 -15 17 -15 19 2 38 10 11 13 20 8 20 -6 0 -17 -7 -24 -16 -12 -14 -14 -14 -20 3 -5 11 -7 -2 -7 -32z"/> <path d="M876 134 c-9 -8 -16 -21 -16 -28 0 -15 32 -46 47 -46 13 0 43 33 43 48 0 15 -29 42 -45 42 -7 0 -21 -7 -29 -16z m42 -3 c21 -13 10 -46 -16 -49 -17 -3 -22 1 -22 21 0 35 13 45 38 28z"/> <path d="M1039 148 c-6 -18 -4 -78 3 -78 4 0 8 8 8 18 0 14 3 13 18 -6 l18 -24 0 44 c-1 37 -4 43 -23 46 -13 2 -23 2 -24 0z m33 -23 c0 -5 -5 -11 -11 -13 -6 -2 -11 4 -11 13 0 9 5 15 11 13 6 -2 11 -8 11 -13z"/> <path d="M1180 105 c0 -41 2 -45 24 -45 14 0 28 5 31 10 4 6 -5 10 -19 10 -32 0 -34 17 -3 23 l22 4 -22 2 c-28 1 -31 21 -3 21 11 0 20 5 20 10 0 6 -11 10 -25 10 -23 0 -25 -4 -25 -45z"/> <path d="M1331 111 c-23 -44 -23 -63 -1 -36 17 20 37 19 49 -2 19 -33 12 9 -8 46 l-19 35 -21 -43z m29 -1 c0 -5 -5 -10 -11 -10 -5 0 -7 5 -4 10 3 6 8 10 11 10 2 0 4 -4 4 -10z"/> <path d="M1600 124 c-6 -14 -15 -35 -21 -47 -12 -21 -11 -21 8 -5 11 10 25 18 31 18 6 0 16 -8 21 -17 16 -27 13 0 -4 41 -18 43 -22 44 -35 10z m24 -9 c3 -9 0 -15 -9 -15 -9 0 -12 6 -9 15 4 8 7 15 9 15 2 0 5 -7 9 -15z"/> <path d="M1726 128 c4 -13 11 -34 16 -48 l10 -25 13 35 13 35 7 -27 c4 -16 11 -28 15 -28 11 0 34 69 26 77 -3 3 -8 0 -10 -8 -2 -8 -6 -21 -9 -29 -3 -10 -9 -5 -17 15 l-12 30 -12 -28 c-13 -29 -26 -27 -26 5 0 10 -5 18 -11 18 -6 0 -8 -9 -3 -22z"/> <path d="M1921 110 c-20 -42 -20 -74 0 -37 13 22 28 22 45 -1 21 -27 17 6 -5 48 l-19 34 -21 -44z m29 0 c0 -5 -5 -10 -11 -10 -5 0 -7 5 -4 10 3 6 8 10 11 10 2 0 4 -4 4 -10z"/> <path d="M2068 109 c-2 -22 0 -43 4 -45 4 -3 8 15 8 40 0 57 -7 60 -12 5z"/> <path d="M2165 140 c4 -6 11 -8 16 -5 5 4 10 -13 11 -37 l1 -43 4 38 c3 24 9 37 19 37 8 0 14 5 14 10 0 6 -16 10 -36 10 -21 0 -33 -4 -29 -10z"/> <path d="M2313 134 c-4 -11 2 -23 18 -35 l24 -19 -24 0 c-17 0 -22 -3 -15 -10 13 -13 44 -2 44 16 0 7 -9 19 -20 27 -21 15 -17 29 6 20 8 -3 14 0 14 6 0 17 -40 13 -47 -5z"/> </g> </svg> 